<svg xmlns="http://www.w3.org/2000/svg" width="16" height="10" viewBox="0 0 16 10" fill="none">
  <g clip-path="url(#clip0_103_116)">
    <path d="M12.5 5.5H3.5C3.22 5.5 3 5.28 3 5C3 4.72 3.22 4.5 3.5 4.5H12.5C12.78 4.5 13 4.72 13 5C13 5.28 12.78 5.5 12.5 5.5Z" fill="#0C273D"/>
    <path d="M10 8.99998C9.93442 9.00078 9.86941 8.98785 9.80913 8.96201C9.74885 8.93618 9.69465 8.89802 9.65 8.84998C9.45 8.64998 9.45 8.33998 9.65 8.13998L12.8 4.98998L9.65 1.83998C9.45 1.63998 9.45 1.32998 9.65 1.12998C9.85 0.92998 10.16 0.92998 10.36 1.12998L13.86 4.62998C14.06 4.82998 14.06 5.13998 13.86 5.33998L10.36 8.83998C10.26 8.93998 10.13 8.98998 10.01 8.98998L10 8.99998Z" fill="#0C273D"/>
  </g>
  <defs>
    <clipPath id="clip0_103_116">
      <rect width="16" height="9" fill="white" transform="translate(0 0.5)"/>
    </clipPath>
  </defs>
</svg>