<svg width="44" height="44" viewBox="0 0 44 44" fill="none" xmlns="http://www.w3.org/2000/svg">
<g clip-path="url(#clip0_72_31)">
<path d="M0 3.1515C0 1.41075 1.4465 0 3.23125 0H40.7687C42.5535 0 44 1.41075 44 3.1515V40.8485C44 42.5892 42.5535 44 40.7687 44H3.23125C1.4465 44 0 42.5892 0 40.8485V3.1515ZM13.5932 36.8335V16.9648H6.9905V36.8335H13.5932ZM10.2933 14.2505C12.595 14.2505 14.0278 12.727 14.0278 10.8185C13.9865 8.86875 12.5978 7.3865 10.3372 7.3865C8.07675 7.3865 6.6 8.8715 6.6 10.8185C6.6 12.727 8.03275 14.2505 10.2493 14.2505H10.2933ZM23.7903 36.8335V25.7373C23.7903 25.1433 23.8342 24.5492 24.0103 24.1257C24.486 22.9405 25.5723 21.7113 27.3983 21.7113C29.788 21.7113 30.7423 23.5318 30.7423 26.2048V36.8335H37.345V25.4375C37.345 19.3325 34.089 16.4945 29.744 16.4945C26.2405 16.4945 24.6702 18.4195 23.7903 19.7752V19.844H23.7463L23.7903 19.7752V16.9648H17.1903C17.2727 18.8293 17.1903 36.8335 17.1903 36.8335H23.7903Z" fill="white"/>
</g>
<defs>
<clipPath id="clip0_72_31">
<rect width="44" height="44" fill="white"/>
</clipPath>
</defs>
</svg>
