<svg width="14" height="14" viewBox="0 0 14 14" fill="none" xmlns="http://www.w3.org/2000/svg">
<g clip-path="url(#clip0_23_409)">
<path d="M0.875 12.6875C0.875 13.4121 1.46289 14 2.1875 14H11.8125C12.5371 14 13.125 13.4121 13.125 12.6875V5.25H0.875V12.6875ZM9.625 7.32812C9.625 7.14766 9.77266 7 9.95312 7H11.0469C11.2273 7 11.375 7.14766 11.375 7.32812V8.42188C11.375 8.60234 11.2273 8.75 11.0469 8.75H9.95312C9.77266 8.75 9.625 8.60234 9.625 8.42188V7.32812ZM9.625 10.8281C9.625 10.6477 9.77266 10.5 9.95312 10.5H11.0469C11.2273 10.5 11.375 10.6477 11.375 10.8281V11.9219C11.375 12.1023 11.2273 12.25 11.0469 12.25H9.95312C9.77266 12.25 9.625 12.1023 9.625 11.9219V10.8281ZM6.125 7.32812C6.125 7.14766 6.27266 7 6.45312 7H7.54688C7.72734 7 7.875 7.14766 7.875 7.32812V8.42188C7.875 8.60234 7.72734 8.75 7.54688 8.75H6.45312C6.27266 8.75 6.125 8.60234 6.125 8.42188V7.32812ZM6.125 10.8281C6.125 10.6477 6.27266 10.5 6.45312 10.5H7.54688C7.72734 10.5 7.875 10.6477 7.875 10.8281V11.9219C7.875 12.1023 7.72734 12.25 7.54688 12.25H6.45312C6.27266 12.25 6.125 12.1023 6.125 11.9219V10.8281ZM2.625 7.32812C2.625 7.14766 2.77266 7 2.95312 7H4.04688C4.22734 7 4.375 7.14766 4.375 7.32812V8.42188C4.375 8.60234 4.22734 8.75 4.04688 8.75H2.95312C2.77266 8.75 2.625 8.60234 2.625 8.42188V7.32812ZM2.625 10.8281C2.625 10.6477 2.77266 10.5 2.95312 10.5H4.04688C4.22734 10.5 4.375 10.6477 4.375 10.8281V11.9219C4.375 12.1023 4.22734 12.25 4.04688 12.25H2.95312C2.77266 12.25 2.625 12.1023 2.625 11.9219V10.8281ZM11.8125 1.75H10.5V0.4375C10.5 0.196875 10.3031 0 10.0625 0H9.1875C8.94687 0 8.75 0.196875 8.75 0.4375V1.75H5.25V0.4375C5.25 0.196875 5.05312 0 4.8125 0H3.9375C3.69688 0 3.5 0.196875 3.5 0.4375V1.75H2.1875C1.46289 1.75 0.875 2.33789 0.875 3.0625V4.375H13.125V3.0625C13.125 2.33789 12.5371 1.75 11.8125 1.75Z" fill="#10CC6F"/>
</g>
<defs>
<clipPath id="clip0_23_409">
<rect width="14" height="14" fill="white"/>
</clipPath>
</defs>
</svg>
