<svg width="17" height="16" viewBox="0 0 17 16" fill="none" xmlns="http://www.w3.org/2000/svg">
<path d="M13.3469 3.55317C12.4602 3.13984 11.5002 2.83984 10.5002 2.6665C10.4827 2.66675 10.4659 2.67394 10.4536 2.6865C10.3336 2.9065 10.1936 3.19317 10.1002 3.41317C9.03957 3.25327 7.96092 3.25327 6.90024 3.41317C6.80691 3.1865 6.66691 2.9065 6.54024 2.6865C6.53357 2.67317 6.51357 2.6665 6.49357 2.6665C5.49357 2.83984 4.54024 3.13984 3.64691 3.55317C3.64024 3.55317 3.63357 3.55984 3.62691 3.5665C1.81357 6.27984 1.31357 8.91984 1.56024 11.5332C1.56024 11.5465 1.56691 11.5598 1.58024 11.5665C2.78024 12.4465 3.93357 12.9798 5.07357 13.3332C5.09357 13.3398 5.11357 13.3332 5.12024 13.3198C5.38691 12.9532 5.62691 12.5665 5.83357 12.1598C5.84691 12.1332 5.83357 12.1065 5.80691 12.0998C5.42691 11.9532 5.06691 11.7798 4.71357 11.5798C4.68691 11.5665 4.68691 11.5265 4.70691 11.5065C4.78024 11.4532 4.85357 11.3932 4.92691 11.3398C4.94024 11.3265 4.96024 11.3265 4.97357 11.3332C7.26691 12.3798 9.74024 12.3798 12.0069 11.3332C12.0202 11.3265 12.0402 11.3265 12.0536 11.3398C12.1269 11.3998 12.2002 11.4532 12.2736 11.5132C12.3002 11.5332 12.3002 11.5732 12.2669 11.5865C11.9202 11.7932 11.5536 11.9598 11.1736 12.1065C11.1469 12.1132 11.1402 12.1465 11.1469 12.1665C11.3602 12.5732 11.6002 12.9598 11.8602 13.3265C11.8802 13.3332 11.9002 13.3398 11.9202 13.3332C13.0669 12.9798 14.2202 12.4465 15.4202 11.5665C15.4336 11.5598 15.4402 11.5465 15.4402 11.5332C15.7336 8.51317 14.9536 5.89317 13.3736 3.5665C13.3669 3.55984 13.3602 3.55317 13.3469 3.55317ZM6.18024 9.93984C5.49357 9.93984 4.92024 9.3065 4.92024 8.5265C4.92024 7.7465 5.48024 7.11317 6.18024 7.11317C6.88691 7.11317 7.44691 7.75317 7.44024 8.5265C7.44024 9.3065 6.88024 9.93984 6.18024 9.93984ZM10.8269 9.93984C10.1402 9.93984 9.56691 9.3065 9.56691 8.5265C9.56691 7.7465 10.1269 7.11317 10.8269 7.11317C11.5336 7.11317 12.0936 7.75317 12.0869 8.5265C12.0869 9.3065 11.5336 9.93984 10.8269 9.93984Z" fill="white"/>
</svg>
