<svg width="17" height="10" viewBox="0 0 17 10" fill="none" xmlns="http://www.w3.org/2000/svg">
<g clip-path="url(#clip0_103_62)">
<path d="M13 5.5H4C3.72 5.5 3.5 5.28 3.5 5C3.5 4.72 3.72 4.5 4 4.5H13C13.28 4.5 13.5 4.72 13.5 5C13.5 5.28 13.28 5.5 13 5.5Z" fill="white"/>
<path d="M10.5 8.99998C10.4344 9.00078 10.3694 8.98785 10.3091 8.96201C10.2489 8.93618 10.1946 8.89802 10.15 8.84998C9.95 8.64998 9.95 8.33998 10.15 8.13998L13.3 4.98998L10.15 1.83998C9.95 1.63998 9.95 1.32998 10.15 1.12998C10.35 0.92998 10.66 0.92998 10.86 1.12998L14.36 4.62998C14.56 4.82998 14.56 5.13998 14.36 5.33998L10.86 8.83998C10.76 8.93998 10.63 8.98998 10.51 8.98998L10.5 8.99998Z" fill="white"/>
</g>
<defs>
<clipPath id="clip0_103_62">
<rect width="16" height="9" fill="white" transform="translate(0.5 0.5)"/>
</clipPath>
</defs>
</svg>
