<svg width="169" height="43" viewBox="0 0 169 43" fill="none" xmlns="http://www.w3.org/2000/svg">
<rect width="169" height="43" rx="5" fill="white"/>
<g clip-path="url(#clip0_72_606)">
<path d="M74.3857 23.5571L79.6829 30.0714H75.5L70.7857 24.0886V30.0714H67.3571V12.9286H70.7857V23.0086L75.14 18.0714H79.5114L74.3857 23.5571ZM60.6714 17.7286C59.9207 17.7399 59.1839 17.9329 58.5241 18.2912C57.8644 18.6494 57.3012 19.1622 56.8829 19.7857V18.0714H53.6429V30.0714H57.0714V24.4657C57.0264 24.0588 57.0656 23.647 57.1866 23.256C57.3076 22.8649 57.5078 22.5029 57.7748 22.1926C58.0417 21.8822 58.3696 21.6301 58.7382 21.452C59.1068 21.2738 59.508 21.1734 59.9171 21.1571C61.9057 21.1571 62.2143 23.1114 62.2143 24.4657V30.0714H65.6429V23.7114C65.6429 19.94 64.3914 17.7286 60.74 17.7286H60.6714ZM91.3571 24.3457C91.3702 24.5971 91.3702 24.8485 91.3571 25.1H82.3571V25.22C82.5032 25.9349 82.8992 26.5743 83.4742 27.0235C84.0491 27.4728 84.7653 27.7025 85.4943 27.6714C86.0726 27.6965 86.65 27.6047 87.192 27.4015C87.734 27.1983 88.2294 26.8878 88.6486 26.4886L90.9286 28.2029C90.206 28.9404 89.3369 29.5182 88.3772 29.8991C87.4176 30.28 86.3887 30.4555 85.3571 30.4143C84.5027 30.4683 83.6467 30.3383 82.8469 30.0331C82.0471 29.7279 81.3221 29.2546 80.7209 28.6453C80.1196 28.0359 79.6562 27.3046 79.3618 26.5007C79.0673 25.6969 78.9489 24.8392 79.0143 23.9857C78.9967 23.1431 79.1529 22.3059 79.4731 21.5262C79.7933 20.7466 80.2706 20.0413 80.8753 19.4543C81.4801 18.8672 82.1992 18.4111 82.988 18.1142C83.7768 17.8173 84.6183 17.686 85.46 17.7286C88.6829 17.7286 91.3571 20.0086 91.3571 24.3457ZM88.1686 22.8714C88.156 22.5318 88.0744 22.1984 87.9287 21.8914C87.7831 21.5844 87.5764 21.3103 87.3214 21.0858C87.0664 20.8612 86.7683 20.691 86.4454 20.5853C86.1224 20.4797 85.7814 20.4409 85.4429 20.4714C83.9354 20.3084 82.5703 21.3703 82.3571 22.8714H88.1686ZM39.9286 12.9286H36.5V30.0714H46.7857V26.6431H39.9286V12.9286ZM101.643 12.9286H105.071V30.0714H101.831V28.8714C101.42 29.3782 100.896 29.7818 100.3 30.0497C99.7049 30.3176 99.0552 30.4425 98.4029 30.4143C97.6061 30.3939 96.8219 30.2106 96.0984 29.876C95.375 29.5413 94.7276 29.0621 94.1962 28.4681C93.6647 27.874 93.2604 27.1775 93.008 26.4214C92.7556 25.6653 92.6606 24.8656 92.7286 24.0714C92.6477 23.2761 92.7332 22.4726 92.9797 21.7121C93.2262 20.9517 93.6283 20.2508 94.1604 19.6542C94.6925 19.0576 95.3429 18.5783 96.0704 18.2468C96.7978 17.9153 97.5863 17.7388 98.3857 17.7286C98.9811 17.7025 99.5757 17.7951 100.135 18.0012C100.694 18.2072 101.207 18.5225 101.643 18.9286V12.9286ZM101.9 24.0714C101.954 23.6755 101.922 23.2727 101.807 22.8901C101.692 22.5075 101.497 22.154 101.233 21.8534C100.97 21.5529 100.646 21.3123 100.282 21.1478C99.9176 20.9833 99.5224 20.8988 99.1229 20.9C97.4829 21.0191 96.2401 22.4294 96.3286 24.0714C96.2401 25.7133 97.4829 27.1239 99.1229 27.2429C99.5225 27.2441 99.9176 27.1596 100.282 26.9951C100.646 26.8307 100.97 26.59 101.234 26.2894C101.497 25.9889 101.692 25.6353 101.807 25.2527C101.922 24.8701 101.954 24.4672 101.9 24.0714ZM50.2143 12.5857C49.663 12.5935 49.1351 12.8102 48.7373 13.1921C48.3396 13.5739 48.1016 14.0925 48.0714 14.6431C48.0714 15.8264 49.0308 16.7859 50.2143 16.7859C51.3978 16.7859 52.3569 15.8263 52.3569 14.6431C52.3266 14.0926 52.0886 13.5741 51.6909 13.1922C51.2932 12.8104 50.7654 12.5937 50.2141 12.5859M48.5 30.0714H51.9286V18.0714H48.5V30.0714ZM132.5 11.2143V31.7857C132.5 32.2404 132.319 32.6764 131.998 32.9979C131.676 33.3194 131.24 33.5 130.786 33.5H110.214C109.76 33.5 109.324 33.3194 109.002 32.9979C108.681 32.6764 108.5 32.2404 108.5 31.7857V11.2143C108.5 10.7596 108.681 10.3236 109.002 10.0021C109.324 9.68061 109.76 9.5 110.214 9.5H130.786C131.24 9.5 131.676 9.68061 131.998 10.0021C132.319 10.3236 132.5 10.7596 132.5 11.2143ZM115.357 18.0714H111.929V30.0714H115.357V18.0714ZM115.786 14.6429C115.786 13.4594 114.826 12.5 113.643 12.5C112.46 12.5 111.5 13.4594 111.5 14.6429C111.5 15.8263 112.459 16.7857 113.643 16.7857C114.826 16.7857 115.786 15.8263 115.786 14.6429ZM129.071 23.7114C129.071 19.94 127.82 17.7286 124.169 17.7286C123.406 17.7287 122.656 17.9164 121.983 18.2752C121.31 18.6339 120.736 19.1527 120.311 19.7857V18.0714H117.071V30.0714H120.5V24.4657C120.455 24.0588 120.494 23.647 120.615 23.256C120.736 22.8649 120.936 22.5029 121.203 22.1926C121.47 21.8822 121.798 21.6301 122.167 21.452C122.535 21.2738 122.937 21.1734 123.346 21.1571C125.334 21.1571 125.643 23.1114 125.643 24.4657V30.0714H129.071V23.7114Z" fill="#3686F7"/>
</g>
<defs>
<clipPath id="clip0_72_606">
<rect width="96" height="24" fill="white" transform="translate(36.5 9.5)"/>
</clipPath>
</defs>
</svg>
