<svg width="91" height="30" viewBox="0 0 91 30" fill="none" xmlns="http://www.w3.org/2000/svg">
<g clip-path="url(#clip0_72_20)">
<path d="M88.1654 18.3343L90.6899 20.0252C89.8706 21.2377 87.9109 23.318 84.5227 23.318C80.3154 23.318 77.1821 20.0475 77.1821 15.887C77.1821 11.4597 80.3486 8.45609 84.1685 8.45609C88.0104 8.45609 89.8926 11.5263 90.5017 13.1838L90.8339 14.0293L80.9355 18.1452C81.6884 19.6359 82.8622 20.3923 84.5227 20.3923C86.1837 20.3923 87.335 19.5691 88.1654 18.3343ZM80.4041 15.6536L87.014 12.8947C86.6486 11.9714 85.5637 11.3152 84.268 11.3152C82.6185 11.3152 80.3266 12.7836 80.4041 15.6536Z" fill="#FF302F"/>
<path d="M72.4102 0.880524H75.5987V22.6395H72.4102V0.880524Z" fill="#20B15A"/>
<path d="M67.3834 9.03447H70.4614V22.25C70.4614 27.7341 67.2395 29.9923 63.4306 29.9923C59.8434 29.9923 57.6845 27.5673 56.8761 25.5984L59.6994 24.4191C60.2086 25.6316 61.4377 27.0668 63.4306 27.0668C65.8775 27.0668 67.3834 25.5427 67.3834 22.695V21.6272H67.2727C66.5418 22.517 65.1468 23.3179 63.3753 23.3179C59.6772 23.3179 56.2891 20.0807 56.2891 15.9093C56.2891 11.7154 59.6772 8.44501 63.3753 8.44501C65.1358 8.44501 66.5418 9.23483 67.2727 10.1025H67.3834V9.03447ZM67.6047 15.9093C67.6047 13.2839 65.8665 11.3705 63.6521 11.3705C61.4155 11.3705 59.5332 13.2839 59.5332 15.9093C59.5332 18.5011 61.4155 20.3811 63.6521 20.3811C65.8666 20.3923 67.6049 18.5011 67.6049 15.9093" fill="#3686F7"/>
<path d="M38.7843 15.8536C38.7843 20.1364 35.4628 23.2845 31.3882 23.2845C27.3139 23.2845 23.9922 20.1254 23.9922 15.8536C23.9922 11.5486 27.3139 8.41162 31.3882 8.41162C35.4628 8.41162 38.7843 11.5486 38.7843 15.8536ZM35.5513 15.8536C35.5513 13.1839 33.6247 11.3482 31.3882 11.3482C29.1518 11.3482 27.2252 13.1839 27.2252 15.8536C27.2252 18.5011 29.1518 20.3589 31.3882 20.3589C33.6249 20.3589 35.5513 18.5011 35.5513 15.8536Z" fill="#FF302F"/>
<path d="M54.9386 15.887C54.9386 20.1698 51.6169 23.3179 47.5425 23.3179C43.468 23.3179 40.1465 20.1697 40.1465 15.887C40.1465 11.582 43.468 8.45609 47.5425 8.45609C51.6169 8.45609 54.9386 11.5709 54.9386 15.887ZM51.6944 15.887C51.6944 13.2173 49.768 11.3816 47.5313 11.3816C45.2947 11.3816 43.3683 13.2173 43.3683 15.887C43.3683 18.5345 45.2949 20.3923 47.5313 20.3923C49.779 20.3923 51.6944 18.5234 51.6944 15.887Z" fill="#FFBA40"/>
<path d="M11.8354 20.0586C7.1962 20.0586 3.56473 16.2986 3.56473 11.6375C3.56473 6.97662 7.1962 3.21662 11.8354 3.21662C14.3377 3.21662 16.1645 4.20662 17.5153 5.47483L19.7409 3.23894C17.8587 1.42572 15.3453 0.0460815 11.8354 0.0460815C5.48017 0.0462601 0.132324 5.25251 0.132324 11.6375C0.132324 18.0225 5.48017 23.2289 11.8354 23.2289C15.2678 23.2289 17.8587 22.0943 19.8848 19.9807C21.9663 17.8893 22.6084 14.9525 22.6084 12.572C22.6084 11.8266 22.5199 11.0591 22.4202 10.4918H11.8354V13.5843H19.3754C19.154 15.52 18.5451 16.8438 17.6482 17.7447C16.5632 18.8461 14.8471 20.0586 11.8354 20.0586Z" fill="#3686F7"/>
</g>
<defs>
<clipPath id="clip0_72_20">
<rect width="91" height="30" fill="white"/>
</clipPath>
</defs>
</svg>
