<svg width="50" height="50" viewBox="0 0 50 50" fill="none" xmlns="http://www.w3.org/2000/svg">
<path d="M20.8332 31.25L31.6457 25L20.8332 18.75V31.25ZM44.9165 14.9375C45.1873 15.9167 45.3748 17.2292 45.4998 18.8958C45.6457 20.5625 45.7082 22 45.7082 23.25L45.8332 25C45.8332 29.5625 45.4998 32.9167 44.9165 35.0625C44.3957 36.9375 43.1873 38.1458 41.3123 38.6667C40.3332 38.9375 38.5415 39.125 35.7915 39.25C33.0832 39.3958 30.604 39.4583 28.3123 39.4583L24.9998 39.5833C16.2707 39.5833 10.8332 39.25 8.68734 38.6667C6.81234 38.1458 5.604 36.9375 5.08317 35.0625C4.81234 34.0833 4.62484 32.7708 4.49984 31.1042C4.354 29.4375 4.2915 28 4.2915 26.75L4.1665 25C4.1665 20.4375 4.49984 17.0833 5.08317 14.9375C5.604 13.0625 6.81234 11.8542 8.68734 11.3333C9.6665 11.0625 11.4582 10.875 14.2082 10.75C16.9165 10.6042 19.3957 10.5417 21.6873 10.5417L24.9998 10.4167C33.729 10.4167 39.1665 10.75 41.3123 11.3333C43.1873 11.8542 44.3957 13.0625 44.9165 14.9375Z" fill="#FF0000"/>
</svg>
