<svg width="17" height="16" viewBox="0 0 17 16" fill="none" xmlns="http://www.w3.org/2000/svg">
<path d="M13.1667 2C13.5203 2 13.8594 2.14048 14.1095 2.39052C14.3595 2.64057 14.5 2.97971 14.5 3.33333V12.6667C14.5 13.0203 14.3595 13.3594 14.1095 13.6095C13.8594 13.8595 13.5203 14 13.1667 14H3.83333C3.47971 14 3.14057 13.8595 2.89052 13.6095C2.64048 13.3594 2.5 13.0203 2.5 12.6667V3.33333C2.5 2.97971 2.64048 2.64057 2.89052 2.39052C3.14057 2.14048 3.47971 2 3.83333 2H13.1667ZM12.8333 12.3333V8.8C12.8333 8.2236 12.6044 7.6708 12.1968 7.26322C11.7892 6.85564 11.2364 6.62667 10.66 6.62667C10.0933 6.62667 9.43333 6.97333 9.11333 7.49333V6.75333H7.25333V12.3333H9.11333V9.04667C9.11333 8.53333 9.52667 8.11333 10.04 8.11333C10.2875 8.11333 10.5249 8.21167 10.7 8.3867C10.875 8.56173 10.9733 8.79913 10.9733 9.04667V12.3333H12.8333ZM5.08667 5.70667C5.38371 5.70667 5.66859 5.58867 5.87863 5.37863C6.08867 5.16859 6.20667 4.88371 6.20667 4.58667C6.20667 3.96667 5.70667 3.46 5.08667 3.46C4.78786 3.46 4.50128 3.5787 4.28999 3.78999C4.0787 4.00128 3.96 4.28786 3.96 4.58667C3.96 5.20667 4.46667 5.70667 5.08667 5.70667ZM6.01333 12.3333V6.75333H4.16667V12.3333H6.01333Z" fill="white"/>
</svg>
