<svg width="17" height="16" viewBox="0 0 17 16" fill="none" xmlns="http://www.w3.org/2000/svg">
<path d="M7.16683 10.0002L10.6268 8.00016L7.16683 6.00016V10.0002ZM14.8735 4.78016C14.9602 5.0935 15.0202 5.5135 15.0602 6.04683C15.1068 6.58016 15.1268 7.04016 15.1268 7.44016L15.1668 8.00016C15.1668 9.46016 15.0602 10.5335 14.8735 11.2202C14.7068 11.8202 14.3202 12.2068 13.7202 12.3735C13.4068 12.4602 12.8335 12.5202 11.9535 12.5602C11.0868 12.6068 10.2935 12.6268 9.56016 12.6268L8.50016 12.6668C5.70683 12.6668 3.96683 12.5602 3.28016 12.3735C2.68016 12.2068 2.2935 11.8202 2.12683 11.2202C2.04016 10.9068 1.98016 10.4868 1.94016 9.9535C1.8935 9.42016 1.8735 8.96016 1.8735 8.56016L1.8335 8.00016C1.8335 6.54016 1.94016 5.46683 2.12683 4.78016C2.2935 4.18016 2.68016 3.7935 3.28016 3.62683C3.5935 3.54016 4.16683 3.48016 5.04683 3.44016C5.9135 3.3935 6.70683 3.3735 7.44016 3.3735L8.50016 3.3335C11.2935 3.3335 13.0335 3.44016 13.7202 3.62683C14.3202 3.7935 14.7068 4.18016 14.8735 4.78016Z" fill="white"/>
</svg>
